<?xml version="1.0" encoding="UTF-8"?>
<!DOCTYPE svg PUBLIC "-//W3C//DTD SVG 1.1//EN" "http://www.w3.org/Graphics/SVG/1.1/DTD/svg11.dtd">
<svg xmlns="http://www.w3.org/2000/svg" version="1.1" width="400px" height="400px" style="shape-rendering:geometricPrecision; text-rendering:geometricPrecision; image-rendering:optimizeQuality; fill-rule:evenodd; clip-rule:evenodd" xmlns:xlink="http://www.w3.org/1999/xlink">
<g><path style="opacity:0.989" fill="#fefefe" d="M 80.5,47.5 C 159.501,47.3333 238.501,47.5 317.5,48C 321.612,49.7786 324.778,52.6119 327,56.5C 327.667,76.1667 327.667,95.8333 327,115.5C 326.71,121.785 323.543,125.618 317.5,127C 308.167,127.667 298.833,127.667 289.5,127C 283.882,125.715 280.715,122.215 280,116.5C 279.5,109.508 279.334,102.508 279.5,95.5C 260.833,95.5 242.167,95.5 223.5,95.5C 223.5,164.833 223.5,234.167 223.5,303.5C 230.508,303.334 237.508,303.5 244.5,304C 250.215,304.715 253.715,307.882 255,313.5C 255.928,324.24 255.595,334.907 254,345.5C 251.036,349.049 247.203,350.882 242.5,351C 213.833,351.667 185.167,351.667 156.5,351C 151.797,350.882 147.964,349.049 145,345.5C 143.405,334.907 143.072,324.24 144,313.5C 145.285,307.882 148.785,304.715 154.5,304C 161.492,303.5 168.492,303.334 175.5,303.5C 175.5,234.167 175.5,164.833 175.5,95.5C 156.833,95.5 138.167,95.5 119.5,95.5C 119.666,102.508 119.5,109.508 119,116.5C 118.285,122.215 115.118,125.715 109.5,127C 98.7738,127.903 88.1071,127.569 77.5,126C 73.9527,123.406 72.1193,119.906 72,115.5C 71.3333,95.8333 71.3333,76.1667 72,56.5C 74.3622,52.9734 77.1955,49.9734 80.5,47.5 Z M 87.5,63.5 C 162.167,63.5 236.833,63.5 311.5,63.5C 311.5,79.5 311.5,95.5 311.5,111.5C 306.167,111.5 300.833,111.5 295.5,111.5C 295.666,101.828 295.5,92.1609 295,82.5C 294.167,81.6667 293.333,80.8333 292.5,80C 265.167,79.3333 237.833,79.3333 210.5,80C 209.667,80.8333 208.833,81.6667 208,82.5C 207.333,160.5 207.333,238.5 208,316.5C 208.833,317.333 209.667,318.167 210.5,319C 220.161,319.5 229.828,319.666 239.5,319.5C 239.5,324.833 239.5,330.167 239.5,335.5C 212.833,335.5 186.167,335.5 159.5,335.5C 159.5,330.167 159.5,324.833 159.5,319.5C 169.172,319.666 178.839,319.5 188.5,319C 189.333,318.167 190.167,317.333 191,316.5C 191.667,238.5 191.667,160.5 191,82.5C 190.167,81.6667 189.333,80.8333 188.5,80C 161.167,79.3333 133.833,79.3333 106.5,80C 105.667,80.8333 104.833,81.6667 104,82.5C 103.5,92.1609 103.334,101.828 103.5,111.5C 98.1667,111.5 92.8333,111.5 87.5,111.5C 87.5,95.5 87.5,79.5 87.5,63.5 Z"/></g>
</svg>
