<?xml version="1.0" encoding="UTF-8"?>
<!DOCTYPE svg PUBLIC "-//W3C//DTD SVG 1.1//EN" "http://www.w3.org/Graphics/SVG/1.1/DTD/svg11.dtd">
<svg xmlns="http://www.w3.org/2000/svg" version="1.1" width="100px" height="100px" style="shape-rendering:geometricPrecision; text-rendering:geometricPrecision; image-rendering:optimizeQuality; fill-rule:evenodd; clip-rule:evenodd" xmlns:xlink="http://www.w3.org/1999/xlink">
<g><path style="opacity:0.769" fill="#000000" d="M 39.5,3.5 C 63.3245,0.494107 80.8245,9.49411 92,30.5C 92.8523,33.033 92.1856,35.033 90,36.5C 76.836,10.6688 56.6693,2.83547 29.5,13C 10.661,25.5111 4.49438,42.6777 11,64.5C 18.3075,81.3015 31.1408,89.9682 49.5,90.5C 67.8592,89.9682 80.6925,81.3015 88,64.5C 88.9277,62.6652 90.0944,62.3318 91.5,63.5C 92.5405,67.4742 91.7072,71.1408 89,74.5C 71.5527,96.9017 50.0527,101.735 24.5,89C 2.0983,71.5527 -2.73503,50.0527 10,24.5C 17.391,13.9034 27.2243,6.90336 39.5,3.5 Z"/></g>
<g><path style="opacity:0.906" fill="#000000" d="M 45.5,31.5 C 46.8333,31.5 48.1667,31.5 49.5,31.5C 49.6567,32.8734 49.49,34.2068 49,35.5C 45.1667,39.3333 41.3333,43.1667 37.5,47C 56.8305,47.5 76.1638,47.6666 95.5,47.5C 95.5,48.8333 95.5,50.1667 95.5,51.5C 76.1638,51.3334 56.8305,51.5 37.5,52C 41.3333,55.8333 45.1667,59.6667 49,63.5C 49.49,64.7932 49.6567,66.1266 49.5,67.5C 48.1266,67.6567 46.7932,67.49 45.5,67C 39.5834,61.5886 34.2501,55.7553 29.5,49.5C 34.4539,43.2098 39.7872,37.2098 45.5,31.5 Z"/></g>
</svg>
