<?xml version="1.0" encoding="UTF-8"?>
<!DOCTYPE svg PUBLIC "-//W3C//DTD SVG 1.1//EN" "http://www.w3.org/Graphics/SVG/1.1/DTD/svg11.dtd">
<svg xmlns="http://www.w3.org/2000/svg" version="1.1" width="100px" height="100px" style="shape-rendering:geometricPrecision; text-rendering:geometricPrecision; image-rendering:optimizeQuality; fill-rule:evenodd; clip-rule:evenodd" xmlns:xlink="http://www.w3.org/1999/xlink">
<g><path style="opacity:0.904" fill="#000000" d="M 47.5,3.5 C 48.8333,3.5 50.1667,3.5 51.5,3.5C 51.3334,22.8362 51.5,42.1695 52,61.5C 55.8333,57.6667 59.6667,53.8333 63.5,50C 64.7932,49.51 66.1266,49.3433 67.5,49.5C 67.6567,50.8734 67.49,52.2068 67,53.5C 61.5886,59.4166 55.7553,64.7499 49.5,69.5C 42.3808,64.2151 36.0474,58.0484 30.5,51C 31.9304,49.5596 33.597,49.2263 35.5,50C 39.3333,53.8333 43.1667,57.6667 47,61.5C 47.5,42.1695 47.6666,22.8362 47.5,3.5 Z"/></g>
<g><path style="opacity:0.768" fill="#000000" d="M 30.5,6.5 C 32.1667,6.5 33.8333,6.5 35.5,6.5C 35.7135,8.14387 35.3802,9.64387 34.5,11C 14.6154,20.5966 6.11542,36.43 9,58.5C 16.8056,82.494 33.3056,92.994 58.5,90C 79.0645,84.2736 89.7312,70.7736 90.5,49.5C 89.9682,31.1408 81.3015,18.3075 64.5,11C 62.6063,9.92071 62.273,8.58738 63.5,7C 67.514,6.49452 71.1806,7.49452 74.5,10C 94.06,24.3478 100.227,43.1811 93,66.5C 81.0565,90.5537 61.8899,99.7204 35.5,94C 8.10827,82.047 -1.72507,61.547 6,32.5C 11.3015,21.0346 19.4682,12.3679 30.5,6.5 Z"/></g>
</svg>
